<svg width="590" height="589" viewBox="0 0 590 589" fill="none" xmlns="http://www.w3.org/2000/svg">
<path d="M376.752 271.903C345.664 268.172 321.587 242.918 319.338 211.683L306.834 37.9889C305.669 21.8059 281.918 21.8057 280.753 37.9888L268.249 211.683C266.001 242.918 241.924 268.172 210.836 271.903L127.411 281.916C112.056 283.759 112.056 306.04 127.411 307.882L210.836 317.895C241.924 321.626 266.001 346.881 268.249 378.116L280.753 551.81C281.918 567.993 305.669 567.993 306.834 551.81L319.338 378.116C321.587 346.881 345.664 321.626 376.752 317.895L460.177 307.882C475.532 306.04 475.532 283.759 460.177 281.916L376.752 271.903Z" fill="#FDCE97"/>
</svg>
