<svg width="1480" height="589" viewBox="0 0 1480 589" fill="none" xmlns="http://www.w3.org/2000/svg">
<g clip-path="url(#clip0_1234_14)">
<path d="M212.491 439.12C185.931 439.12 164.651 433.04 148.651 420.88C132.971 408.4 125.131 391.28 125.131 369.52C125.131 347.76 131.691 330.64 144.811 318.16C157.931 305.68 178.571 296.72 206.731 291.28L294.571 274.48C294.571 254.64 289.931 239.92 280.651 230.32C271.691 220.4 258.091 215.44 239.851 215.44C223.851 215.44 211.051 219.12 201.451 226.48C197.455 229.41 194.013 232.951 191.126 237.101C183.558 247.979 172.529 257.541 159.303 256.7L129.451 254.8C134.251 228.88 146.251 208.72 165.451 194.32C184.971 179.6 209.771 172.24 239.851 172.24C274.091 172.24 300.171 181.36 318.091 199.6C336.331 217.84 345.451 243.76 345.451 277.36V376.72C345.451 382.8 346.571 387.12 348.811 389.68C351.051 391.92 354.571 393.04 359.371 393.04V393.04C364.408 393.04 368.491 397.123 368.491 402.16V433.36C366.251 433.68 363.371 434 359.851 434.32C356.651 434.64 353.291 434.8 349.771 434.8C332.171 434.8 319.051 430.64 310.411 422.32C302.091 413.68 297.931 399.28 297.931 379.12L303.211 381.52C299.691 398.16 289.451 411.92 272.491 422.8C255.531 433.68 235.531 439.12 212.491 439.12ZM221.131 398.8C236.171 398.8 249.131 395.92 260.011 390.16C271.211 384.08 279.691 375.76 285.451 365.2C291.531 354.64 294.571 342.64 294.571 329.2V312.88L220.171 327.28C205.131 330.16 194.251 334.64 187.531 340.72C181.131 346.8 177.931 354.8 177.931 364.72C177.931 375.6 181.611 384.08 188.971 390.16C196.651 395.92 207.371 398.8 221.131 398.8Z" fill="black"/>
<path d="M510.665 511.12C490.825 511.12 473.065 508.08 457.385 502C442.025 495.92 429.385 487.28 419.465 476.08C409.545 465.2 402.825 452.4 399.305 437.68L452.105 434.32C455.625 445.84 461.865 454.48 470.825 460.24C480.105 466 493.385 468.88 510.665 468.88C532.105 468.88 548.265 464.4 559.145 455.44C570.345 446.48 575.945 432.88 575.945 414.64V377.68C569.545 390.8 559.625 401.2 546.185 408.88C533.065 416.56 518.185 420.4 501.545 420.4C480.425 420.4 461.545 415.28 444.905 405.04C428.265 394.48 415.145 379.92 405.545 361.36C396.265 342.48 391.625 320.88 391.625 296.56C391.625 272.24 396.265 250.8 405.545 232.24C414.825 213.36 427.625 198.64 443.945 188.08C460.265 177.52 478.985 172.24 500.105 172.24C518.025 172.24 533.865 176.4 547.625 184.72C561.705 192.72 571.785 203.92 577.865 218.32V205C577.865 190.088 589.953 178 604.865 178H627.305V413.2C627.305 444.24 616.905 468.24 596.105 485.2C575.305 502.48 546.825 511.12 510.665 511.12ZM509.705 377.2C523.145 377.2 534.825 374 544.745 367.6C554.665 360.88 562.345 351.44 567.785 339.28C573.545 327.12 576.425 312.72 576.425 296.08C576.425 279.76 573.705 265.52 568.265 253.36C563.145 241.2 555.465 231.92 545.225 225.52C534.985 218.8 523.145 215.44 509.705 215.44C489.545 215.44 473.545 222.8 461.705 237.52C450.185 251.92 444.425 271.44 444.425 296.08C444.425 321.04 450.345 340.88 462.185 355.6C474.025 370 489.865 377.2 509.705 377.2Z" fill="black"/>
<path d="M788.922 439.12C764.602 439.12 743.322 433.68 725.082 422.8C706.842 411.92 692.762 396.4 682.842 376.24C672.922 356.08 667.962 332.56 667.962 305.68C667.962 279.12 672.922 255.76 682.842 235.6C692.762 215.12 706.682 199.44 724.602 188.56C742.522 177.68 763.482 172.24 787.482 172.24C810.842 172.24 831.322 177.68 848.922 188.56C866.522 199.12 880.122 214.64 889.722 235.12C899.642 255.28 904.602 279.44 904.602 307.6V320.56H721.242C722.202 344.88 728.602 363.44 740.442 376.24C752.602 389.04 768.922 395.44 789.402 395.44C804.442 395.44 816.922 392.08 826.842 385.36C831.203 382.406 835.007 378.895 838.255 374.828C845.903 365.251 856.484 357.102 868.715 357.881L900.762 359.92C894.042 384.24 880.602 403.6 860.442 418C840.602 432.08 816.762 439.12 788.922 439.12ZM850.362 282.16C848.762 260.08 842.362 243.44 831.162 232.24C820.282 221.04 805.722 215.44 787.482 215.44C769.242 215.44 754.202 221.2 742.362 232.72C730.842 244.24 723.802 260.72 721.242 282.16H850.362Z" fill="black"/>
<path d="M949.336 178H969.646C984.261 178 996.223 189.63 996.635 204.24L997.816 246.16L991.576 242.8C995.736 219.12 1005.18 201.52 1019.9 190C1034.94 178.16 1053.18 172.24 1074.62 172.24C1102.14 172.24 1123.42 181.2 1138.46 199.12C1153.5 216.72 1161.02 240.08 1161.02 269.2V433.36H1137.14C1122.22 433.36 1110.14 421.272 1110.14 406.36V284.56C1110.14 261.52 1106.3 244.24 1098.62 232.72C1090.94 220.88 1078.3 214.96 1060.7 214.96C1042.14 214.96 1027.42 221.04 1016.54 233.2C1005.66 245.36 1000.22 262.48 1000.22 284.56V433.36H949.336V178Z" fill="black"/>
<path d="M1306.72 433.36C1282.4 433.36 1264.48 427.76 1252.96 416.56C1241.44 405.36 1235.68 387.92 1235.68 364.24V118H1259.56C1274.47 118 1286.56 130.088 1286.56 145V360.4C1286.56 371.92 1288.96 380.08 1293.76 384.88C1298.88 389.36 1306.88 391.6 1317.76 391.6H1327.24C1342.15 391.6 1354.24 403.688 1354.24 418.6V433.36H1306.72ZM1196.8 205C1196.8 190.088 1208.89 178 1223.8 178H1354.24V192.76C1354.24 207.672 1342.15 219.76 1327.24 219.76H1196.8V205Z" fill="black"/>
</g>
<defs>
<clipPath id="clip0_1234_14">
<rect width="1229" height="433" fill="white" transform="translate(125.131 78)"/>
</clipPath>
</defs>
</svg>
